<?xml version="1.0" encoding="UTF-8"?>
<svg id="Layer_1" data-name="Layer 1" xmlns="http://www.w3.org/2000/svg" viewBox="0 0 185.03 72.42"><defs><style>.cls-1{fill:#45bbce;}.cls-2{fill:#039db7;}.cls-3{fill:#e2408e;}.cls-4{fill:#263d5b;}.cls-5{fill:#fff;}</style></defs><polygon class="cls-1" points="159.22 20.65 159.22 25.79 159.62 25.78 159.62 20.88 167.9 25.81 176.46 20.65 167.9 15.48 159.22 20.65"/><polygon class="cls-2" points="167.9 25.81 167.9 36.13 176.46 30.97 176.46 20.65 167.9 25.81"/><polygon class="cls-3" points="167.79 5.16 167.79 10.27 168.19 10.27 168.19 5.4 176.46 10.32 185.03 5.16 176.46 0 167.79 5.16"/><polygon class="cls-4" points="176.46 10.32 176.46 20.64 185.03 15.48 185.03 5.16 176.46 10.32"/><path class="cls-5" d="M331.85,274.79v32.34h-4.3V274.79Z" transform="translate(-327.55 -256.68)"/><path class="cls-5" d="M359.2,274.79v32.34h-4v-4a10,10,0,0,1-8.73,4.58,12.16,12.16,0,0,1,0-24.3,10,10,0,0,1,8.73,4.57V274.79Zm-4,20.79a8.2,8.2,0,1,0-8.22,8.27A8.08,8.08,0,0,0,355.18,295.58Z" transform="translate(-327.55 -256.68)"/><path class="cls-5" d="M374.17,303.94a7.53,7.53,0,0,0,6.65-3.37l3.42,1.94a11.65,11.65,0,0,1-10.16,5.22c-7.44,0-12.39-5.22-12.39-12.15a11.74,11.74,0,0,1,12.11-12.15c7,0,11.5,5.72,11.5,12.19a12.11,12.11,0,0,1-.13,1.8H365.81C366.59,301.58,369.87,303.94,374.17,303.94Zm-8.36-10h15.43c-.7-4.57-4-6.7-7.44-6.7A7.66,7.66,0,0,0,365.81,293.91Z" transform="translate(-327.55 -256.68)"/><path class="cls-5" d="M410.71,284v23.1h-4v-4a10,10,0,0,1-8.73,4.58,12.16,12.16,0,0,1,0-24.3,10,10,0,0,1,8.73,4.57v-4Zm-4,11.55a8.2,8.2,0,1,0-8.22,8.27A8.07,8.07,0,0,0,406.69,295.58Z" transform="translate(-327.55 -256.68)"/><path class="cls-5" d="M437.65,284v22.13c0,7.21-5.78,10.81-11.78,10.81-5.18,0-9.06-2-10.95-5.64l3.51-2c1.06,2.17,3,3.88,7.53,3.88,4.8,0,7.71-2.73,7.71-7.07v-3.28A10,10,0,0,1,425,307.5a12,12,0,0,1,0-24.07,9.94,9.94,0,0,1,8.68,4.57v-4Zm-4,11.41a8.22,8.22,0,1,0-8.22,8.22A8.06,8.06,0,0,0,433.67,295.44Z" transform="translate(-327.55 -256.68)"/><path class="cls-5" d="M452.62,303.94a7.56,7.56,0,0,0,6.65-3.37l3.42,1.94a11.67,11.67,0,0,1-10.17,5.22c-7.44,0-12.38-5.22-12.38-12.15a11.74,11.74,0,0,1,12.11-12.15c7,0,11.5,5.72,11.5,12.19a10.92,10.92,0,0,1-.14,1.8H444.25C445,301.58,448.32,303.94,452.62,303.94Zm-8.37-10h15.44c-.7-4.57-4-6.7-7.44-6.7A7.67,7.67,0,0,0,444.25,293.91Z" transform="translate(-327.55 -256.68)"/><path class="cls-5" d="M486.53,292.94v14.19h-4v-14c0-3.78-2.17-5.91-5.73-5.91s-6.7,2.17-6.7,7.62v12.25h-4V284h4v3.32a8.22,8.22,0,0,1,7.48-3.92C483,283.43,486.53,287,486.53,292.94Z" transform="translate(-327.55 -256.68)"/>
</svg>