<?xml version="1.0" encoding="UTF-8" standalone="no" ?>
<!DOCTYPE svg PUBLIC "-//W3C//DTD SVG 1.1//EN" "http://www.w3.org/Graphics/SVG/1.1/DTD/svg11.dtd">
<svg xmlns="http://www.w3.org/2000/svg" xmlns:xlink="http://www.w3.org/1999/xlink" version="1.1" width="1080" height="1080" viewBox="0 0 1080 1080" xml:space="preserve">
<desc>Created with Fabric.js 5.2.4</desc>
<defs>
</defs>
<g transform="matrix(1 0 0 1 540 540)" id="723e8090-d465-4b54-a7c1-88aabd45dc45"  >
<rect style="stroke: none; stroke-width: 1; stroke-dasharray: none; stroke-linecap: butt; stroke-dashoffset: 0; stroke-linejoin: miter; stroke-miterlimit: 4; fill: rgb(255,255,255); fill-rule: nonzero; opacity: 1; visibility: hidden;" vector-effect="non-scaling-stroke"  x="-540" y="-540" rx="0" ry="0" width="1080" height="1080" />
</g>
<g transform="matrix(1 0 0 1 540 540)" id="cb232e97-0163-4f58-92aa-833902683a9f"  >
</g>
<g transform="matrix(5.91 0 0 5.91 540 540)"  >
<g style=""   >
		<g transform="matrix(1 0 0 1 74.36 -18.42)" id="c"  >
<path style="stroke: none; stroke-width: 1; stroke-dasharray: none; stroke-linecap: butt; stroke-dashoffset: 0; stroke-linejoin: miter; stroke-miterlimit: 4; fill: rgb(255,255,255); fill-rule: nonzero; opacity: 1;" vector-effect="non-scaling-stroke"  transform=" translate(-165.81, -20.52)" d="M 157.2429 20.518 L 157.2429 25.625 L 157.6369 25.625 L 157.6369 20.752 L 165.8609 25.652 L 174.3759 20.523000000000003 L 165.86090000000002 15.394000000000004 L 157.24290000000002 20.518000000000004 Z" stroke-linecap="round" />
</g>
		<g transform="matrix(1 0 0 1 78.67 -10.73)" id="d"  >
<path style="stroke: none; stroke-width: 1; stroke-dasharray: none; stroke-linecap: butt; stroke-dashoffset: 0; stroke-linejoin: miter; stroke-miterlimit: 4; fill: rgb(255,255,255); fill-rule: nonzero; opacity: 1;" vector-effect="non-scaling-stroke"  transform=" translate(-170.12, -28.21)" d="M 165.86 25.647 L 165.86 35.906 L 174.375 30.777 L 174.375 20.518 L 165.86 25.647 Z" stroke-linecap="round" />
</g>
		<g transform="matrix(1 0 0 1 82.88 -33.81)" id="f"  >
<path style="stroke: none; stroke-width: 1; stroke-dasharray: none; stroke-linecap: butt; stroke-dashoffset: 0; stroke-linejoin: miter; stroke-miterlimit: 4; fill: rgb(255,255,255); fill-rule: nonzero; opacity: 1;" vector-effect="non-scaling-stroke"  transform=" translate(-174.32, -5.13)" d="M 165.7579 5.13 L 165.7579 10.205 L 166.15290000000002 10.205 L 166.15290000000002 5.367 L 174.3719 10.259 L 182.88690000000003 5.130000000000001 L 174.38000000000002 8.881784197001252e-16 L 165.75790000000003 5.130000000000001 Z" stroke-linecap="round" />
</g>
		<g transform="matrix(1 0 0 1 87.19 -26.12)" id="g"  >
<path style="stroke: none; stroke-width: 1; stroke-dasharray: none; stroke-linecap: butt; stroke-dashoffset: 0; stroke-linejoin: miter; stroke-miterlimit: 4; fill: rgb(255,255,255); fill-rule: nonzero; opacity: 1;" vector-effect="non-scaling-stroke"  transform=" translate(-178.63, -12.82)" d="M 174.3749 10.259 L 174.3749 20.518 L 182.8899 15.385000000000002 L 182.8899 5.13 L 174.37490000000003 10.259 Z" stroke-linecap="round" />
</g>
		<g transform="matrix(1 0 0 1 -89.31 -4.88)" id="i"  >
<path style="stroke: none; stroke-width: 1; stroke-dasharray: none; stroke-linecap: butt; stroke-dashoffset: 0; stroke-linejoin: miter; stroke-miterlimit: 4; fill: rgb(255,255,255); fill-rule: nonzero; opacity: 1;" vector-effect="non-scaling-stroke"  transform=" translate(-2.13, -34.07)" d="M 4.27 17.999 L 4.27 50.135 L 0 50.135 L 0 17.999 L 4.27 17.999 Z" stroke-linecap="round" />
</g>
		<g transform="matrix(1 0 0 1 -72.15 -4.57)" id="j"  >
<path style="stroke: none; stroke-width: 1; stroke-dasharray: none; stroke-linecap: butt; stroke-dashoffset: 0; stroke-linejoin: miter; stroke-miterlimit: 4; fill: rgb(255,255,255); fill-rule: nonzero; opacity: 1;" vector-effect="non-scaling-stroke"  transform=" translate(-19.3, -34.37)" d="M 31.4469 17.999 L 31.4469 50.135 L 27.4529 50.135 L 27.4529 46.187 C 25.5605 49.1224 22.2655 50.848099999999995 18.7749 50.732 C 12.105799999999999 50.4817 6.9022999999999985 44.8725 7.1526 38.2033 C 7.3896999999999995 31.8853 12.4569 26.8181 18.7749 26.581 C 22.2657 26.4649 25.560899999999997 28.1911 27.4529 31.127 L 27.4529 17.999 L 31.4469 17.999 Z M 27.4529 38.657 C 27.4153 34.156 23.7361 30.537699999999994 19.2352 30.5753 C 14.734199999999998 30.6129 11.115899999999998 34.2921 11.1535 38.793 C 11.1908 43.2583 14.8144 46.8622 19.279899999999998 46.8749 C 23.714399999999998 46.954499999999996 27.3739 43.4244 27.453799999999998 38.9899 C 27.455799999999996 38.8788 27.455499999999997 38.7678 27.452899999999996 38.6569 Z" stroke-linecap="round" />
</g>
		<g transform="matrix(1 0 0 1 -45.79 -0.29)" id="k"  >
<path style="stroke: none; stroke-width: 1; stroke-dasharray: none; stroke-linecap: butt; stroke-dashoffset: 0; stroke-linejoin: miter; stroke-miterlimit: 4; fill: rgb(255,255,255); fill-rule: nonzero; opacity: 1;" vector-effect="non-scaling-stroke"  transform=" translate(-45.65, -38.66)" d="M 46.3229 46.966 C 48.962399999999995 47.091300000000004 51.473099999999995 45.8183 52.9319 43.615 L 56.3319 45.543 C 54.101699999999994 48.917 50.2735 50.8837 46.231899999999996 50.732 C 38.83989999999999 50.732 33.926899999999996 45.543 33.926899999999996 38.657 C 33.6943 32.221 38.7232 26.815099999999994 45.1592 26.582499999999996 L 45.1592 26.582499999999996 C 45.425 26.572899999999997 45.6909 26.572399999999995 45.9569 26.580999999999996 C 52.8899 26.580999999999996 57.3889 32.273999999999994 57.3889 38.702 C 57.3889 39.3017 57.3427 39.9004 57.2509 40.492999999999995 L 38.0119 40.492999999999995 C 38.792899999999996 44.626 42.052899999999994 46.965999999999994 46.3229 46.965999999999994 Z M 38.012899999999995 37.003 L 53.347899999999996 37.003 C 52.658899999999996 32.457 49.3989 30.346 45.95589999999999 30.346 C 41.97379999999999 30.1452 38.51019999999999 33.0481 38.01189999999999 37.004 L 38.01289999999999 37.003 Z" stroke-linecap="round" />
</g>
		<g transform="matrix(1 0 0 1 -20.96 -0.29)" id="l"  >
<path style="stroke: none; stroke-width: 1; stroke-dasharray: none; stroke-linecap: butt; stroke-dashoffset: 0; stroke-linejoin: miter; stroke-miterlimit: 4; fill: rgb(255,255,255); fill-rule: nonzero; opacity: 1;" vector-effect="non-scaling-stroke"  transform=" translate(-70.49, -38.66)" d="M 82.64 27.178 L 82.64 50.135000000000005 L 78.646 50.135000000000005 L 78.646 46.187000000000005 C 76.754 49.12220000000001 73.4593 50.848000000000006 69.969 50.732000000000006 C 63.299899999999994 50.481700000000004 58.096399999999996 44.87250000000001 58.3467 38.203300000000006 C 58.5838 31.885300000000008 63.650999999999996 26.81810000000001 69.969 26.581000000000007 C 73.45949999999999 26.465000000000007 76.7543 28.191200000000006 78.64599999999999 31.127000000000006 L 78.64599999999999 27.178000000000004 L 82.63999999999999 27.178000000000004 Z M 78.646 38.657 C 78.6084 34.156 74.9292 30.537699999999994 70.4282 30.5753 C 65.9272 30.6129 62.3089 34.2921 62.346500000000006 38.793099999999995 C 62.38380000000001 43.258399999999995 66.0074 46.8623 70.47290000000001 46.87499999999999 C 74.90740000000001 46.95459999999999 78.56680000000001 43.424499999999995 78.64670000000001 38.989999999999995 C 78.64880000000001 38.878899999999994 78.64850000000001 38.7679 78.64580000000001 38.657 L 78.64580000000001 38.657 Z" stroke-linecap="round" />
</g>
		<g transform="matrix(1 0 0 1 5.83 4.3)" id="m"  >
<path style="stroke: none; stroke-width: 1; stroke-dasharray: none; stroke-linecap: butt; stroke-dashoffset: 0; stroke-linejoin: miter; stroke-miterlimit: 4; fill: rgb(255,255,255); fill-rule: nonzero; opacity: 1;" vector-effect="non-scaling-stroke"  transform=" translate(-97.27, -43.25)" d="M 109.4089 27.178 L 109.4089 49.172 C 109.4089 56.333999999999996 103.6699 59.916 97.7009 59.916 C 92.55890000000001 59.916 88.7009 57.942 86.8189 54.315999999999995 L 90.3089 52.340999999999994 C 91.3639 54.498999999999995 93.29289999999999 56.19799999999999 97.7919 56.19799999999999 C 102.5669 56.19799999999999 105.4599 53.489999999999995 105.4599 49.172999999999995 L 105.4599 45.913 C 103.5856 48.8501 100.311 50.592099999999995 96.8279 50.504999999999995 C 90.222 50.357099999999996 84.9868 44.882 85.1348 38.2761 C 85.2781 31.8784 90.4303 26.7262 96.8279 26.583 C 100.3037 26.478399999999997 103.5798 28.203799999999998 105.4599 31.128999999999998 L 105.4599 27.177999999999997 L 109.4089 27.177999999999997 Z M 105.46090000000001 38.519 C 105.46090000000001 34.0052 101.80170000000001 30.345999999999997 97.28790000000001 30.345999999999997 C 92.7741 30.345999999999997 89.1149 34.005199999999995 89.1149 38.519 C 89.1149 43.0328 92.7741 46.692 97.28790000000001 46.692 L 97.28790000000001 46.692 C 101.71010000000001 46.7836 105.36930000000001 43.2729 105.46090000000001 38.8506 L 105.46090000000001 38.8506 C 105.46320000000001 38.7397 105.46320000000001 38.6288 105.46090000000001 38.518 L 105.46090000000001 38.519 Z" stroke-linecap="round" />
</g>
		<g transform="matrix(1 0 0 1 32.17 -0.29)" id="n"  >
<path style="stroke: none; stroke-width: 1; stroke-dasharray: none; stroke-linecap: butt; stroke-dashoffset: 0; stroke-linejoin: miter; stroke-miterlimit: 4; fill: rgb(255,255,255); fill-rule: nonzero; opacity: 1;" vector-effect="non-scaling-stroke"  transform=" translate(-123.62, -38.66)" d="M 124.2849 46.966 C 126.92569999999999 47.0936 129.4383 45.8202 130.8969 43.615 L 134.2969 45.543 C 132.0664 48.9167 128.23839999999998 50.8834 124.1969 50.732 C 116.8049 50.732 111.89189999999999 45.543 111.89189999999999 38.657 C 111.65929999999999 32.221 116.6882 26.815099999999994 123.12419999999999 26.582499999999996 L 123.12419999999999 26.582499999999996 C 123.38999999999999 26.572899999999997 123.65589999999999 26.572399999999995 123.9219 26.580999999999996 C 130.8549 26.580999999999996 135.3549 32.273999999999994 135.3549 38.702 C 135.3549 39.3017 135.3087 39.9004 135.21689999999998 40.492999999999995 L 115.97489999999998 40.492999999999995 C 116.75489999999998 44.626 120.01489999999998 46.965999999999994 124.28489999999998 46.965999999999994 Z M 115.97489999999999 37.003 L 131.30689999999998 37.003 C 130.6179 32.457 127.35789999999999 30.346 123.91489999999999 30.346 C 119.93419999999999 30.1469 116.47269999999999 33.0495 115.97489999999999 37.004 L 115.97489999999999 37.003 Z" stroke-linecap="round" />
</g>
		<g transform="matrix(1 0 0 1 56.37 -0.59)" id="o"  >
<path style="stroke: none; stroke-width: 1; stroke-dasharray: none; stroke-linecap: butt; stroke-dashoffset: 0; stroke-linejoin: miter; stroke-miterlimit: 4; fill: rgb(255,255,255); fill-rule: nonzero; opacity: 1;" vector-effect="non-scaling-stroke"  transform=" translate(-147.82, -38.35)" d="M 157.9849 36.039 L 157.9849 50.139 L 153.9909 50.139 L 153.9909 36.272000000000006 C 153.9909 32.507000000000005 151.83290000000002 30.395000000000007 148.2979 30.395000000000007 C 144.6259 30.395000000000007 141.6409 32.553000000000004 141.6409 37.971000000000004 L 141.6409 50.135000000000005 L 137.64589999999998 50.135000000000005 L 137.64589999999998 27.178 L 141.63989999999998 27.178 L 141.63989999999998 30.484 C 143.2086 27.910000000000004 146.06849999999997 26.410400000000003 149.07789999999997 26.584000000000003 C 154.44999999999996 26.581000000000003 157.98489999999998 30.162000000000003 157.98489999999998 36.039 Z" stroke-linecap="round" />
</g>
		<g transform="matrix(1 0 0 1 -88.37 31.68)" id="a"  >
<path style="stroke: none; stroke-width: 1; stroke-dasharray: none; stroke-linecap: butt; stroke-dashoffset: 0; stroke-linejoin: miter; stroke-miterlimit: 4; fill: rgb(255,255,255); fill-rule: nonzero; opacity: 1;" vector-effect="non-scaling-stroke"  transform=" translate(-3.07, -70.62)" d="M 0.6515 73.6994 C 1.1701 74.0182 1.9274 74.2839 2.7247 74.2839 C 3.9078 74.2839 4.5987 73.6594 4.5987 72.7556 C 4.5987 71.9182 4.1202 71.4402 2.9107000000000003 70.9748 C 1.4488000000000003 70.4562 0.5450000000000004 69.69890000000001 0.5450000000000004 68.4362 C 0.5450000000000004 67.0407 1.7012000000000003 66.0041 3.4425000000000003 66.0041 C 4.359500000000001 66.0041 5.024 66.217 5.423 66.4426 L 5.1037 67.3864 C 4.8111999999999995 67.2267 4.2136 66.96109999999999 3.4025 66.96109999999999 C 2.1798 66.96109999999999 1.7149999999999999 67.69209999999998 1.7149999999999999 68.30339999999998 C 1.7149999999999999 69.14079999999998 2.2594 69.55289999999998 3.4958 70.03089999999999 C 5.0108999999999995 70.61589999999998 5.7814 71.34679999999999 5.7814 72.66269999999999 C 5.7814 74.04499999999999 4.7585 75.2408 2.6451999999999996 75.2408 C 1.7813999999999997 75.2408 0.8375999999999995 74.9884 0.35909999999999975 74.6695 L 0.6515999999999997 73.6993 Z" stroke-linecap="round" />
</g>
		<g transform="matrix(1 0 0 1 -81.37 32.95)" id="a"  >
<path style="stroke: none; stroke-width: 1; stroke-dasharray: none; stroke-linecap: butt; stroke-dashoffset: 0; stroke-linejoin: miter; stroke-miterlimit: 4; fill: rgb(255,255,255); fill-rule: nonzero; opacity: 1;" vector-effect="non-scaling-stroke"  transform=" translate(-10.08, -71.89)" d="M 13.2223 71.8385 C 13.2223 74.2174 11.5744 75.25399999999999 10.019200000000001 75.25399999999999 C 8.278000000000002 75.25399999999999 6.9357000000000015 73.97809999999998 6.9357000000000015 71.94489999999999 C 6.9357000000000015 69.79209999999999 8.3449 68.5294 10.125600000000002 68.5294 C 11.972800000000003 68.5294 13.222300000000002 69.87169999999999 13.222300000000002 71.8385 Z M 8.1188 71.9049 C 8.1188 73.3136 8.9293 74.3771 10.0724 74.3771 C 11.188600000000001 74.3771 12.026 73.3273 12.026 71.8786 C 12.026 70.78880000000001 11.4811 69.4064 10.0988 69.4064 C 8.716500000000002 69.4064 8.1188 70.6823 8.1188 71.9049 Z" stroke-linecap="round" />
</g>
		<g transform="matrix(1 0 0 1 -76.17 31.45)" id="a"  >
<path style="stroke: none; stroke-width: 1; stroke-dasharray: none; stroke-linecap: butt; stroke-dashoffset: 0; stroke-linejoin: miter; stroke-miterlimit: 4; fill: rgb(255,255,255); fill-rule: nonzero; opacity: 1;" vector-effect="non-scaling-stroke"  transform=" translate(-15.28, -70.39)" d="M 14.6949 65.672 L 15.8643 65.672 L 15.8643 75.108 L 14.6949 75.108 L 14.6949 65.672 Z" stroke-linecap="round" />
</g>
		<g transform="matrix(1 0 0 1 -70.92 33.02)" id="a"  >
<path style="stroke: none; stroke-width: 1; stroke-dasharray: none; stroke-linecap: butt; stroke-dashoffset: 0; stroke-linejoin: miter; stroke-miterlimit: 4; fill: rgb(255,255,255); fill-rule: nonzero; opacity: 1;" vector-effect="non-scaling-stroke"  transform=" translate(-20.53, -71.96)" d="M 23.213 73.3537 C 23.213 74.0183 23.226200000000002 74.6032 23.265700000000002 75.10810000000001 L 22.229100000000003 75.10810000000001 L 22.1627 74.0583 L 22.136300000000002 74.0583 C 21.8306 74.5764 21.152900000000002 75.25410000000001 20.009800000000002 75.25410000000001 C 18.9995 75.25410000000001 17.790100000000002 74.69600000000001 17.790100000000002 72.4367 L 17.790100000000002 68.6755 L 18.96 68.6755 L 18.96 72.2375 C 18.96 73.4602 19.3321 74.2839 20.3951 74.2839 C 21.179299999999998 74.2839 21.7242 73.739 21.9371 73.2209 C 22.003500000000003 73.048 22.043100000000003 72.8356 22.043100000000003 72.6228 L 22.043100000000003 68.6755 L 23.213 68.6755 L 23.213 73.3537 Z" stroke-linecap="round" />
</g>
		<g transform="matrix(1 0 0 1 -65.12 32.09)" id="a"  >
<path style="stroke: none; stroke-width: 1; stroke-dasharray: none; stroke-linecap: butt; stroke-dashoffset: 0; stroke-linejoin: miter; stroke-miterlimit: 4; fill: rgb(255,255,255); fill-rule: nonzero; opacity: 1;" vector-effect="non-scaling-stroke"  transform=" translate(-26.33, -71.03)" d="M 26.5597 66.8283 L 26.5597 68.6755 L 28.2345 68.6755 L 28.2345 69.5661 L 26.5597 69.5661 L 26.5597 73.03490000000001 C 26.5597 73.8323 26.7858 74.2839 27.4371 74.2839 C 27.742800000000003 74.2839 27.9683 74.24430000000001 28.114800000000002 74.2043 L 28.168000000000003 75.0817 C 27.941900000000004 75.1745 27.583000000000002 75.2409 27.131400000000003 75.2409 C 26.586500000000004 75.2409 26.147500000000004 75.068 25.868700000000004 74.7492 C 25.536200000000004 74.40350000000001 25.416600000000003 73.8322 25.416600000000003 73.0749 L 25.416600000000003 69.5661 L 24.42 69.5661 L 24.42 68.6755 L 25.416600000000003 68.6755 L 25.416600000000003 67.134 L 26.559700000000003 66.8283 Z" stroke-linecap="round" />
</g>
		<g transform="matrix(1 0 0 1 -61.32 31.68)" id="a"  >
<path style="stroke: none; stroke-width: 1; stroke-dasharray: none; stroke-linecap: butt; stroke-dashoffset: 0; stroke-linejoin: miter; stroke-miterlimit: 4; fill: rgb(255,255,255); fill-rule: nonzero; opacity: 1;" vector-effect="non-scaling-stroke"  transform=" translate(-30.13, -70.62)" d="M 30.8507 66.8678 C 30.8644 67.2667 30.5719 67.5856 30.1066 67.5856 C 29.6945 67.5856 29.4025 67.2668 29.4025 66.8678 C 29.4025 66.4562 29.7082 66.13680000000001 30.1335 66.13680000000001 C 30.572000000000003 66.13680000000001 30.850800000000003 66.4561 30.850800000000003 66.8678 Z M 29.5485 75.108 L 29.5485 68.67540000000001 L 30.7179 68.67540000000001 L 30.7179 75.108 L 29.5485 75.108 Z" stroke-linecap="round" />
</g>
		<g transform="matrix(1 0 0 1 -56.11 32.95)" id="a"  >
<path style="stroke: none; stroke-width: 1; stroke-dasharray: none; stroke-linecap: butt; stroke-dashoffset: 0; stroke-linejoin: miter; stroke-miterlimit: 4; fill: rgb(255,255,255); fill-rule: nonzero; opacity: 1;" vector-effect="non-scaling-stroke"  transform=" translate(-35.34, -71.89)" d="M 38.4786 71.8385 C 38.4786 74.2174 36.8307 75.25399999999999 35.2755 75.25399999999999 C 33.5343 75.25399999999999 32.192 73.97809999999998 32.192 71.94489999999999 C 32.192 69.79209999999999 33.6007 68.5294 35.3819 68.5294 C 37.2291 68.5294 38.4786 69.87169999999999 38.4786 71.8385 Z M 33.3751 71.9049 C 33.3751 73.3136 34.1856 74.3771 35.328700000000005 74.3771 C 36.444900000000004 74.3771 37.282300000000006 73.3273 37.282300000000006 71.8786 C 37.282300000000006 70.78880000000001 36.73740000000001 69.4064 35.35510000000001 69.4064 C 33.97280000000001 69.4064 33.37510000000001 70.6823 33.37510000000001 71.9049 Z" stroke-linecap="round" />
</g>
		<g transform="matrix(1 0 0 1 -48.78 32.88)" id="a"  >
<path style="stroke: none; stroke-width: 1; stroke-dasharray: none; stroke-linecap: butt; stroke-dashoffset: 0; stroke-linejoin: miter; stroke-miterlimit: 4; fill: rgb(255,255,255); fill-rule: nonzero; opacity: 1;" vector-effect="non-scaling-stroke"  transform=" translate(-42.66, -71.82)" d="M 39.9518 70.4167 C 39.9518 69.75210000000001 39.9386 69.2072 39.8986 68.6755 L 40.9352 68.6755 L 41.0016 69.739 L 41.0285 69.739 C 41.347300000000004 69.1277 42.0915 68.5295 43.155 68.5295 C 44.0451 68.5295 45.4275 69.0607 45.4275 71.2673 L 45.4275 75.10810000000001 L 44.2581 75.10810000000001 L 44.2581 71.40010000000001 C 44.2581 70.36350000000002 43.8724 69.4997 42.7693 69.4997 C 41.9988 69.4997 41.400600000000004 70.0446 41.2014 70.69550000000001 C 41.1482 70.84200000000001 41.1213 71.0412 41.1213 71.24040000000001 L 41.1213 75.10810000000001 L 39.951899999999995 75.10810000000001 L 39.951899999999995 70.4167 Z" stroke-linecap="round" />
</g>
		<g transform="matrix(1 0 0 1 -42.46 32.94)" id="a"  >
<path style="stroke: none; stroke-width: 1; stroke-dasharray: none; stroke-linecap: butt; stroke-dashoffset: 0; stroke-linejoin: miter; stroke-miterlimit: 4; fill: rgb(255,255,255); fill-rule: nonzero; opacity: 1;" vector-effect="non-scaling-stroke"  transform=" translate(-48.98, -71.89)" d="M 47.1656 73.9118 C 47.5113 74.1379 48.1226 74.3771 48.7076 74.3771 C 49.5582 74.3771 49.9566 73.95179999999999 49.9566 73.4201 C 49.9566 72.86200000000001 49.6246 72.55630000000001 48.7608 72.23750000000001 C 47.604600000000005 71.82540000000002 47.0596 71.18720000000002 47.0596 70.4167 C 47.0596 69.3801 47.8965 68.52950000000001 49.278800000000004 68.52950000000001 C 49.930200000000006 68.52950000000001 50.50150000000001 68.71550000000002 50.8603 68.92790000000001 L 50.567800000000005 69.77850000000001 C 50.315400000000004 69.61930000000001 49.850500000000004 69.4064 49.25240000000001 69.4064 C 48.56100000000001 69.4064 48.175700000000006 69.8053 48.175700000000006 70.2838 C 48.175700000000006 70.815 48.56100000000001 71.0543 49.39840000000001 71.3736 C 50.51460000000001 71.7989 51.08640000000001 72.357 51.08640000000001 73.31349999999999 C 51.08640000000001 74.4434 50.20900000000001 75.24069999999999 48.68060000000001 75.24069999999999 C 47.976500000000016 75.24069999999999 47.32510000000001 75.06779999999999 46.873500000000014 74.80219999999998 L 47.165500000000016 73.91159999999998 Z" stroke-linecap="round" />
</g>
		<g transform="matrix(1 0 0 1 -34.72 31.37)" id="a"  >
<path style="stroke: none; stroke-width: 1; stroke-dasharray: none; stroke-linecap: butt; stroke-dashoffset: 0; stroke-linejoin: miter; stroke-miterlimit: 4; fill: rgb(255,255,255); fill-rule: nonzero; opacity: 1;" vector-effect="non-scaling-stroke"  transform=" translate(-56.73, -70.32)" d="M 55.5226 75.1081 L 55.5226 69.56609999999999 L 54.6188 69.56609999999999 L 54.6188 68.67549999999999 L 55.5226 68.67549999999999 L 55.5226 68.36979999999998 C 55.5226 67.46599999999998 55.721799999999995 66.64229999999998 56.2667 66.12369999999999 C 56.7052 65.69839999999999 57.2901 65.52559999999998 57.8351 65.52559999999998 C 58.2472 65.52559999999998 58.6061 65.61889999999998 58.8317 65.71159999999999 L 58.6725 66.6154 C 58.4996 66.5358 58.2604 66.4694 57.928399999999996 66.4694 C 56.93129999999999 66.4694 56.6789 67.34639999999999 56.6789 68.32979999999999 L 56.6789 68.67549999999999 L 58.2341 68.67549999999999 L 58.2341 69.56609999999999 L 56.6789 69.56609999999999 L 56.6789 75.1081 L 55.5227 75.1081 Z" stroke-linecap="round" />
</g>
		<g transform="matrix(1 0 0 1 -29.66 32.95)" id="a"  >
<path style="stroke: none; stroke-width: 1; stroke-dasharray: none; stroke-linecap: butt; stroke-dashoffset: 0; stroke-linejoin: miter; stroke-miterlimit: 4; fill: rgb(255,255,255); fill-rule: nonzero; opacity: 1;" vector-effect="non-scaling-stroke"  transform=" translate(-61.79, -71.89)" d="M 64.9313 71.8385 C 64.9313 74.2174 63.28339999999999 75.25399999999999 61.728199999999994 75.25399999999999 C 59.986999999999995 75.25399999999999 58.64469999999999 73.97809999999998 58.64469999999999 71.94489999999999 C 58.64469999999999 69.79209999999999 60.05389999999999 68.5294 61.834599999999995 68.5294 C 63.681799999999996 68.5294 64.9313 69.87169999999999 64.9313 71.8385 Z M 59.827799999999996 71.9049 C 59.827799999999996 73.3136 60.638299999999994 74.3771 61.7814 74.3771 C 62.8976 74.3771 63.735 73.3273 63.735 71.8786 C 63.735 70.78880000000001 63.1901 69.4064 61.8078 69.4064 C 60.4255 69.4064 59.8278 70.6823 59.8278 71.9049 Z" stroke-linecap="round" />
</g>
		<g transform="matrix(1 0 0 1 -23.48 32.88)" id="a"  >
<path style="stroke: none; stroke-width: 1; stroke-dasharray: none; stroke-linecap: butt; stroke-dashoffset: 0; stroke-linejoin: miter; stroke-miterlimit: 4; fill: rgb(255,255,255); fill-rule: nonzero; opacity: 1;" vector-effect="non-scaling-stroke"  transform=" translate(-67.97, -71.82)" d="M 66.4039 70.6823 C 66.4039 69.925 66.3907 69.2736 66.35069999999999 68.6755 L 67.37409999999998 68.6755 L 67.41409999999999 69.9382 L 67.46679999999999 69.9382 C 67.7593 69.0744 68.4639 68.5295 69.24799999999999 68.5295 C 69.3808 68.5295 69.47359999999999 68.5427 69.57999999999998 68.56909999999999 L 69.57999999999998 69.67259999999999 C 69.46039999999998 69.64569999999999 69.34069999999998 69.63259999999998 69.18159999999999 69.63259999999998 C 68.35739999999998 69.63259999999998 67.77239999999999 70.25709999999998 67.61319999999999 71.13459999999998 C 67.5863 71.29379999999998 67.55999999999999 71.47979999999998 67.55999999999999 71.67949999999998 L 67.55999999999999 75.10819999999998 L 66.40379999999999 75.10819999999998 L 66.40379999999999 70.68239999999999 Z" stroke-linecap="round" />
</g>
		<g transform="matrix(1 0 0 1 -16.32 32.88)" id="a"  >
<path style="stroke: none; stroke-width: 1; stroke-dasharray: none; stroke-linecap: butt; stroke-dashoffset: 0; stroke-linejoin: miter; stroke-miterlimit: 4; fill: rgb(255,255,255); fill-rule: nonzero; opacity: 1;" vector-effect="non-scaling-stroke"  transform=" translate(-75.13, -71.82)" d="M 73.5651 70.6823 C 73.5651 69.925 73.5519 69.2736 73.5119 68.6755 L 74.53529999999999 68.6755 L 74.5753 69.9382 L 74.628 69.9382 C 74.9205 69.0744 75.6251 68.5295 76.4092 68.5295 C 76.542 68.5295 76.6348 68.5427 76.74119999999999 68.56909999999999 L 76.74119999999999 69.67259999999999 C 76.62159999999999 69.64569999999999 76.50189999999999 69.63259999999998 76.3428 69.63259999999998 C 75.51859999999999 69.63259999999998 74.9336 70.25709999999998 74.7744 71.13459999999998 C 74.7475 71.29379999999998 74.7212 71.47979999999998 74.7212 71.67949999999998 L 74.7212 75.10819999999998 L 73.565 75.10819999999998 L 73.565 70.68239999999999 Z" stroke-linecap="round" />
</g>
		<g transform="matrix(1 0 0 1 -11.3 32.94)" id="a"  >
<path style="stroke: none; stroke-width: 1; stroke-dasharray: none; stroke-linecap: butt; stroke-dashoffset: 0; stroke-linejoin: miter; stroke-miterlimit: 4; fill: rgb(255,255,255); fill-rule: nonzero; opacity: 1;" vector-effect="non-scaling-stroke"  transform=" translate(-80.15, -71.89)" d="M 78.4283 72.1046 C 78.45469999999999 73.68610000000001 79.4649 74.337 80.6344 74.337 C 81.4718 74.337 81.9767 74.191 82.4152 74.00500000000001 L 82.6149 74.84240000000001 C 82.20280000000001 75.02840000000002 81.49820000000001 75.24080000000001 80.4748 75.24080000000001 C 78.4948 75.24080000000001 77.3117 73.93860000000001 77.3117 71.99810000000001 C 77.3117 70.05760000000001 78.4548 68.5293 80.3288 68.5293 C 82.4289 68.5293 82.987 70.37650000000001 82.987 71.5596 C 82.987 71.7989 82.9601 71.98490000000001 82.94699999999999 72.1045 L 78.42839999999998 72.1045 Z M 81.857 71.2672 C 81.8702 70.5231 81.5513 69.3663 80.2354 69.3663 C 79.0528 69.3663 78.5342 70.45609999999999 78.4415 71.2672 L 81.857 71.2672 Z" stroke-linecap="round" />
</g>
		<g transform="matrix(1 0 0 1 -4.47 34.26)" id="a"  >
<path style="stroke: none; stroke-width: 1; stroke-dasharray: none; stroke-linecap: butt; stroke-dashoffset: 0; stroke-linejoin: miter; stroke-miterlimit: 4; fill: rgb(255,255,255); fill-rule: nonzero; opacity: 1;" vector-effect="non-scaling-stroke"  transform=" translate(-86.97, -73.21)" d="M 89.9752 68.6754 C 89.9488 69.1407 89.922 69.6588 89.922 70.443 L 89.922 74.1779 C 89.922 75.65299999999999 89.63 76.5568 89.005 77.11489999999999 C 88.3805 77.69989999999999 87.4767 77.88589999999999 86.6661 77.88589999999999 C 85.8951 77.88589999999999 85.0445 77.69989999999999 84.5265 77.35419999999999 L 84.8185 76.46359999999999 C 85.2438 76.72969999999998 85.9083 76.96899999999998 86.70570000000001 76.96899999999998 C 87.902 76.96899999999998 88.77940000000001 76.34399999999998 88.77940000000001 74.72289999999998 L 88.77940000000001 74.00509999999998 L 88.75250000000001 74.00509999999998 C 88.3936 74.60319999999999 87.70270000000001 75.08179999999999 86.70560000000002 75.08179999999999 C 85.11090000000002 75.08179999999999 83.96780000000001 73.72579999999999 83.96780000000001 71.94509999999998 C 83.96780000000001 69.76539999999999 85.39020000000001 68.52959999999999 86.8653 68.52959999999999 C 87.98150000000001 68.52959999999999 88.59280000000001 69.1141 88.8721 69.6458 L 88.8985 69.6458 L 88.9517 68.67559999999999 L 89.9751 68.67559999999999 Z M 88.7657 71.214 C 88.7657 71.0148 88.7525 70.8419 88.6993 70.6823 C 88.48689999999999 70.0046 87.9151 69.4465 87.0645 69.4465 C 85.94829999999999 69.4465 85.1509 70.3899 85.1509 71.8786 C 85.1509 73.1413 85.78859999999999 74.1911 87.0513 74.1911 C 87.7691 74.1911 88.4204 73.739 88.6729 72.99480000000001 C 88.7393 72.79560000000001 88.7657 72.5695 88.7657 72.37030000000001 L 88.7657 71.21410000000002 Z" stroke-linecap="round" />
</g>
		<g transform="matrix(1 0 0 1 3.11 33.02)" id="a"  >
<path style="stroke: none; stroke-width: 1; stroke-dasharray: none; stroke-linecap: butt; stroke-dashoffset: 0; stroke-linejoin: miter; stroke-miterlimit: 4; fill: rgb(255,255,255); fill-rule: nonzero; opacity: 1;" vector-effect="non-scaling-stroke"  transform=" translate(-94.56, -71.96)" d="M 97.2428 73.3537 C 97.2428 74.0183 97.256 74.6032 97.2955 75.10810000000001 L 96.25890000000001 75.10810000000001 L 96.19250000000001 74.0583 L 96.16610000000001 74.0583 C 95.86040000000001 74.5764 95.18270000000001 75.25410000000001 94.03960000000001 75.25410000000001 C 93.0293 75.25410000000001 91.8199 74.69600000000001 91.8199 72.4367 L 91.8199 68.6755 L 92.9898 68.6755 L 92.9898 72.2375 C 92.9898 73.4602 93.3619 74.2839 94.42490000000001 74.2839 C 95.2091 74.2839 95.754 73.739 95.96690000000001 73.2209 C 96.03330000000001 73.048 96.0729 72.8356 96.0729 72.6228 L 96.0729 68.6755 L 97.2428 68.6755 L 97.2428 73.3537 Z" stroke-linecap="round" />
</g>
		<g transform="matrix(1 0 0 1 8.32 31.45)" id="a"  >
<path style="stroke: none; stroke-width: 1; stroke-dasharray: none; stroke-linecap: butt; stroke-dashoffset: 0; stroke-linejoin: miter; stroke-miterlimit: 4; fill: rgb(255,255,255); fill-rule: nonzero; opacity: 1;" vector-effect="non-scaling-stroke"  transform=" translate(-99.77, -70.39)" d="M 99.1808 65.672 L 100.3502 65.672 L 100.3502 75.108 L 99.1808 75.108 L 99.1808 65.672 Z" stroke-linecap="round" />
</g>
		<g transform="matrix(1 0 0 1 12.93 32.95)" id="a"  >
<path style="stroke: none; stroke-width: 1; stroke-dasharray: none; stroke-linecap: butt; stroke-dashoffset: 0; stroke-linejoin: miter; stroke-miterlimit: 4; fill: rgb(255,255,255); fill-rule: nonzero; opacity: 1;" vector-effect="non-scaling-stroke"  transform=" translate(-104.38, -71.89)" d="M 105.878 75.1081 L 105.7847 74.29759999999999 L 105.7447 74.29759999999999 C 105.38579999999999 74.8025 104.69489999999999 75.2541 103.77789999999999 75.2541 C 102.47569999999999 75.2541 101.81109999999998 74.33709999999999 101.81109999999998 73.4069 C 101.81109999999998 71.8517 103.19289999999998 71.0011 105.67829999999998 71.0148 L 105.67829999999998 70.88149999999999 C 105.67829999999998 70.35029999999999 105.53229999999998 69.3932 104.21639999999998 69.3932 C 103.61829999999998 69.3932 102.99369999999998 69.5792 102.54209999999998 69.87169999999999 L 102.27599999999998 69.10069999999999 C 102.80769999999998 68.755 103.57869999999998 68.5294 104.38929999999998 68.5294 C 106.35609999999998 68.5294 106.83459999999998 69.87169999999999 106.83459999999998 71.16069999999999 L 106.83459999999998 73.56649999999999 C 106.83459999999998 74.12459999999999 106.86149999999998 74.66949999999999 106.94099999999997 75.10799999999999 L 105.87799999999997 75.10799999999999 Z M 105.7051 71.82539999999999 C 104.42920000000001 71.79899999999999 102.9805 72.02459999999999 102.9805 73.27409999999999 C 102.9805 74.03139999999999 103.48540000000001 74.3903 104.0835 74.3903 C 104.9209 74.3903 105.4526 73.8586 105.6387 73.3136 C 105.6783 73.19449999999999 105.7051 73.0612 105.7051 72.94149999999999 L 105.7051 71.82529999999998 Z" stroke-linecap="round" />
</g>
		<g transform="matrix(1 0 0 1 18.4 32.09)" id="a"  >
<path style="stroke: none; stroke-width: 1; stroke-dasharray: none; stroke-linecap: butt; stroke-dashoffset: 0; stroke-linejoin: miter; stroke-miterlimit: 4; fill: rgb(255,255,255); fill-rule: nonzero; opacity: 1;" vector-effect="non-scaling-stroke"  transform=" translate(-109.84, -71.03)" d="M 110.0758 66.8283 L 110.0758 68.6755 L 111.7506 68.6755 L 111.7506 69.5661 L 110.0758 69.5661 L 110.0758 73.03490000000001 C 110.0758 73.8323 110.3019 74.2839 110.9532 74.2839 C 111.2589 74.2839 111.4844 74.24430000000001 111.6309 74.2043 L 111.6841 75.0817 C 111.458 75.1745 111.0991 75.2409 110.64750000000001 75.2409 C 110.10260000000001 75.2409 109.6636 75.068 109.38480000000001 74.7492 C 109.05230000000002 74.40350000000001 108.93270000000001 73.8322 108.93270000000001 73.0749 L 108.93270000000001 69.5661 L 107.93610000000001 69.5661 L 107.93610000000001 68.6755 L 108.93270000000001 68.6755 L 108.93270000000001 67.134 L 110.07580000000002 66.8283 Z" stroke-linecap="round" />
</g>
		<g transform="matrix(1 0 0 1 23.91 32.94)" id="a"  >
<path style="stroke: none; stroke-width: 1; stroke-dasharray: none; stroke-linecap: butt; stroke-dashoffset: 0; stroke-linejoin: miter; stroke-miterlimit: 4; fill: rgb(255,255,255); fill-rule: nonzero; opacity: 1;" vector-effect="non-scaling-stroke"  transform=" translate(-115.36, -71.89)" d="M 113.6363 72.1046 C 113.6627 73.68610000000001 114.6729 74.337 115.84240000000001 74.337 C 116.67980000000001 74.337 117.1847 74.191 117.62320000000001 74.00500000000001 L 117.8229 74.84240000000001 C 117.41080000000001 75.02840000000002 116.70620000000001 75.24080000000001 115.6828 75.24080000000001 C 113.7028 75.24080000000001 112.5197 73.93860000000001 112.5197 71.99810000000001 C 112.5197 70.05760000000001 113.6628 68.5293 115.5368 68.5293 C 117.6369 68.5293 118.195 70.37650000000001 118.195 71.5596 C 118.195 71.7989 118.1681 71.98490000000001 118.15499999999999 72.1045 L 113.63639999999998 72.1045 Z M 117.06500000000001 71.2672 C 117.07820000000001 70.5231 116.75930000000001 69.3663 115.44340000000001 69.3663 C 114.26080000000002 69.3663 113.74220000000001 70.45609999999999 113.64950000000002 71.2672 L 117.06500000000001 71.2672 Z" stroke-linecap="round" />
</g>
		<g transform="matrix(1 0 0 1 30.77 31.52)" id="a"  >
<path style="stroke: none; stroke-width: 1; stroke-dasharray: none; stroke-linecap: butt; stroke-dashoffset: 0; stroke-linejoin: miter; stroke-miterlimit: 4; fill: rgb(255,255,255); fill-rule: nonzero; opacity: 1;" vector-effect="non-scaling-stroke"  transform=" translate(-122.21, -70.46)" d="M 125.1964 65.672 L 125.1964 73.4469 C 125.1964 74.0182 125.2101 74.6696 125.2496 75.108 L 124.1998 75.108 L 124.14659999999999 73.9918 L 124.1202 73.9918 C 123.76129999999999 74.70909999999999 122.9771 75.25399999999999 121.9273 75.25399999999999 C 120.3721 75.25399999999999 119.17580000000001 73.9386 119.17580000000001 71.98499999999999 C 119.16260000000001 69.84489999999998 120.49170000000001 68.52939999999998 122.0601 68.52939999999998 C 123.04350000000001 68.52939999999998 123.708 68.99419999999998 124.0005 69.51279999999998 L 124.0269 69.51279999999998 L 124.0269 65.67199999999998 L 125.1963 65.67199999999998 Z M 124.027 71.2936 C 124.027 71.1476 124.0138 70.94839999999999 123.9738 70.8019 C 123.8009 70.0578 123.16329999999999 69.4464 122.2863 69.4464 C 121.07679999999999 69.4464 120.3591 70.5094 120.3591 71.9318 C 120.3591 73.234 120.9968 74.3107 122.2595 74.3107 C 123.0437 74.3107 123.7615 73.79209999999999 123.9739 72.9152 C 124.0139 72.7555 124.0271 72.5964 124.0271 72.41029999999999 L 124.0271 71.2936 Z" stroke-linecap="round" />
</g>
		<g transform="matrix(1 0 0 1 39.08 31.68)" id="a"  >
<path style="stroke: none; stroke-width: 1; stroke-dasharray: none; stroke-linecap: butt; stroke-dashoffset: 0; stroke-linejoin: miter; stroke-miterlimit: 4; fill: rgb(255,255,255); fill-rule: nonzero; opacity: 1;" vector-effect="non-scaling-stroke"  transform=" translate(-130.53, -70.62)" d="M 131.2535 66.8678 C 131.2672 67.2667 130.9747 67.5856 130.5094 67.5856 C 130.0973 67.5856 129.8053 67.2668 129.8053 66.8678 C 129.8053 66.4562 130.111 66.13680000000001 130.53629999999998 66.13680000000001 C 130.9748 66.13680000000001 131.25359999999998 66.4561 131.25359999999998 66.8678 Z M 129.9513 75.108 L 129.9513 68.67540000000001 L 131.1207 68.67540000000001 L 131.1207 75.108 L 129.9513 75.108 Z" stroke-linecap="round" />
</g>
		<g transform="matrix(1 0 0 1 44.33 32.88)" id="a"  >
<path style="stroke: none; stroke-width: 1; stroke-dasharray: none; stroke-linecap: butt; stroke-dashoffset: 0; stroke-linejoin: miter; stroke-miterlimit: 4; fill: rgb(255,255,255); fill-rule: nonzero; opacity: 1;" vector-effect="non-scaling-stroke"  transform=" translate(-135.77, -71.82)" d="M 133.0602 70.4167 C 133.0602 69.75210000000001 133.047 69.2072 133.007 68.6755 L 134.0436 68.6755 L 134.10999999999999 69.739 L 134.1369 69.739 C 134.4557 69.1277 135.19989999999999 68.5295 136.2634 68.5295 C 137.15349999999998 68.5295 138.5359 69.0607 138.5359 71.2673 L 138.5359 75.10810000000001 L 137.3665 75.10810000000001 L 137.3665 71.40010000000001 C 137.3665 70.36350000000002 136.9808 69.4997 135.8777 69.4997 C 135.1072 69.4997 134.50900000000001 70.0446 134.3098 70.69550000000001 C 134.2566 70.84200000000001 134.2297 71.0412 134.2297 71.24040000000001 L 134.2297 75.10810000000001 L 133.0603 75.10810000000001 L 133.0603 70.4167 Z" stroke-linecap="round" />
</g>
		<g transform="matrix(1 0 0 1 51.56 31.52)" id="a"  >
<path style="stroke: none; stroke-width: 1; stroke-dasharray: none; stroke-linecap: butt; stroke-dashoffset: 0; stroke-linejoin: miter; stroke-miterlimit: 4; fill: rgb(255,255,255); fill-rule: nonzero; opacity: 1;" vector-effect="non-scaling-stroke"  transform=" translate(-143.01, -70.46)" d="M 145.9889 65.672 L 145.9889 73.4469 C 145.9889 74.0182 146.0026 74.6696 146.0421 75.108 L 144.9923 75.108 L 144.9391 73.9918 L 144.9127 73.9918 C 144.5538 74.70909999999999 143.7696 75.25399999999999 142.7198 75.25399999999999 C 141.16459999999998 75.25399999999999 139.9683 73.9386 139.9683 71.98499999999999 C 139.9551 69.84489999999998 141.2842 68.52939999999998 142.8526 68.52939999999998 C 143.83599999999998 68.52939999999998 144.5005 68.99419999999998 144.793 69.51279999999998 L 144.8194 69.51279999999998 L 144.8194 65.67199999999998 L 145.9888 65.67199999999998 Z M 144.8195 71.2936 C 144.8195 71.1476 144.8063 70.94839999999999 144.7663 70.8019 C 144.5934 70.0578 143.9558 69.4464 143.0783 69.4464 C 141.8693 69.4464 141.1515 70.5094 141.1515 71.9318 C 141.1515 73.234 141.7892 74.3107 143.0519 74.3107 C 143.8361 74.3107 144.5539 73.79209999999999 144.7663 72.9152 C 144.8063 72.7555 144.8195 72.5964 144.8195 72.41029999999999 L 144.8195 71.2936 Z" stroke-linecap="round" />
</g>
		<g transform="matrix(1 0 0 1 59.18 33.02)" id="a"  >
<path style="stroke: none; stroke-width: 1; stroke-dasharray: none; stroke-linecap: butt; stroke-dashoffset: 0; stroke-linejoin: miter; stroke-miterlimit: 4; fill: rgb(255,255,255); fill-rule: nonzero; opacity: 1;" vector-effect="non-scaling-stroke"  transform=" translate(-150.62, -71.96)" d="M 153.3097 73.3537 C 153.3097 74.0183 153.3229 74.6032 153.36239999999998 75.10810000000001 L 152.3258 75.10810000000001 L 152.2594 74.0583 L 152.233 74.0583 C 151.9273 74.5764 151.24960000000002 75.25410000000001 150.1065 75.25410000000001 C 149.0962 75.25410000000001 147.88680000000002 74.69600000000001 147.88680000000002 72.4367 L 147.88680000000002 68.6755 L 149.05670000000003 68.6755 L 149.05670000000003 72.2375 C 149.05670000000003 73.4602 149.42880000000002 74.2839 150.49180000000004 74.2839 C 151.27600000000004 74.2839 151.82090000000005 73.739 152.03380000000004 73.2209 C 152.10020000000003 73.048 152.13980000000004 72.8356 152.13980000000004 72.6228 L 152.13980000000004 68.6755 L 153.30970000000005 68.6755 L 153.30970000000005 73.3537 Z" stroke-linecap="round" />
</g>
		<g transform="matrix(1 0 0 1 65.46 32.94)" id="a"  >
<path style="stroke: none; stroke-width: 1; stroke-dasharray: none; stroke-linecap: butt; stroke-dashoffset: 0; stroke-linejoin: miter; stroke-miterlimit: 4; fill: rgb(255,255,255); fill-rule: nonzero; opacity: 1;" vector-effect="non-scaling-stroke"  transform=" translate(-156.9, -71.89)" d="M 155.088 73.9118 C 155.4337 74.1379 156.045 74.3771 156.63 74.3771 C 157.48059999999998 74.3771 157.879 73.95179999999999 157.879 73.4201 C 157.879 72.86200000000001 157.547 72.55630000000001 156.6832 72.23750000000001 C 155.527 71.82540000000002 154.982 71.18720000000002 154.982 70.4167 C 154.982 69.3801 155.81889999999999 68.52950000000001 157.2012 68.52950000000001 C 157.8526 68.52950000000001 158.4239 68.71550000000002 158.7827 68.92790000000001 L 158.49020000000002 69.77850000000001 C 158.23780000000002 69.61930000000001 157.77290000000002 69.4064 157.1748 69.4064 C 156.48340000000002 69.4064 156.09810000000002 69.8053 156.09810000000002 70.2838 C 156.09810000000002 70.815 156.48340000000002 71.0543 157.32080000000002 71.3736 C 158.437 71.7989 159.0088 72.357 159.0088 73.31349999999999 C 159.0088 74.4434 158.1314 75.24069999999999 156.603 75.24069999999999 C 155.8989 75.24069999999999 155.2475 75.06779999999999 154.79590000000002 74.80219999999998 L 155.08790000000002 73.91159999999998 Z" stroke-linecap="round" />
</g>
		<g transform="matrix(1 0 0 1 70.24 32.09)" id="a"  >
<path style="stroke: none; stroke-width: 1; stroke-dasharray: none; stroke-linecap: butt; stroke-dashoffset: 0; stroke-linejoin: miter; stroke-miterlimit: 4; fill: rgb(255,255,255); fill-rule: nonzero; opacity: 1;" vector-effect="non-scaling-stroke"  transform=" translate(-161.69, -71.03)" d="M 161.9176 66.8283 L 161.9176 68.6755 L 163.5924 68.6755 L 163.5924 69.5661 L 161.9176 69.5661 L 161.9176 73.03490000000001 C 161.9176 73.8323 162.1437 74.2839 162.795 74.2839 C 163.1007 74.2839 163.3262 74.24430000000001 163.47269999999997 74.2043 L 163.52589999999998 75.0817 C 163.29979999999998 75.1745 162.94089999999997 75.2409 162.4893 75.2409 C 161.94439999999997 75.2409 161.50539999999998 75.068 161.2266 74.7492 C 160.89409999999998 74.40350000000001 160.7745 73.8322 160.7745 73.0749 L 160.7745 69.5661 L 159.7779 69.5661 L 159.7779 68.6755 L 160.7745 68.6755 L 160.7745 67.134 L 161.9176 66.8283 Z" stroke-linecap="round" />
</g>
		<g transform="matrix(1 0 0 1 75.02 32.88)" id="a"  >
<path style="stroke: none; stroke-width: 1; stroke-dasharray: none; stroke-linecap: butt; stroke-dashoffset: 0; stroke-linejoin: miter; stroke-miterlimit: 4; fill: rgb(255,255,255); fill-rule: nonzero; opacity: 1;" vector-effect="non-scaling-stroke"  transform=" translate(-166.47, -71.82)" d="M 164.9069 70.6823 C 164.9069 69.925 164.8937 69.2736 164.8537 68.6755 L 165.8771 68.6755 L 165.9171 69.9382 L 165.9698 69.9382 C 166.26229999999998 69.0744 166.96689999999998 68.5295 167.751 68.5295 C 167.8838 68.5295 167.9766 68.5427 168.083 68.56909999999999 L 168.083 69.67259999999999 C 167.9634 69.64569999999999 167.8437 69.63259999999998 167.6846 69.63259999999998 C 166.8604 69.63259999999998 166.2754 70.25709999999998 166.1162 71.13459999999998 C 166.08929999999998 71.29379999999998 166.063 71.47979999999998 166.063 71.67949999999998 L 166.063 75.10819999999998 L 164.90679999999998 75.10819999999998 L 164.90679999999998 70.68239999999999 Z" stroke-linecap="round" />
</g>
		<g transform="matrix(1 0 0 1 78.44 31.68)" id="a"  >
<path style="stroke: none; stroke-width: 1; stroke-dasharray: none; stroke-linecap: butt; stroke-dashoffset: 0; stroke-linejoin: miter; stroke-miterlimit: 4; fill: rgb(255,255,255); fill-rule: nonzero; opacity: 1;" vector-effect="non-scaling-stroke"  transform=" translate(-169.88, -70.62)" d="M 170.6066 66.8678 C 170.6203 67.2667 170.3278 67.5856 169.86249999999998 67.5856 C 169.45039999999997 67.5856 169.15839999999997 67.2668 169.15839999999997 66.8678 C 169.15839999999997 66.4562 169.46409999999997 66.13680000000001 169.88939999999997 66.13680000000001 C 170.32789999999997 66.13680000000001 170.60669999999996 66.4561 170.60669999999996 66.8678 Z M 169.3044 75.108 L 169.3044 68.67540000000001 L 170.47379999999998 68.67540000000001 L 170.47379999999998 75.108 L 169.3044 75.108 Z" stroke-linecap="round" />
</g>
		<g transform="matrix(1 0 0 1 83.34 32.94)" id="a"  >
<path style="stroke: none; stroke-width: 1; stroke-dasharray: none; stroke-linecap: butt; stroke-dashoffset: 0; stroke-linejoin: miter; stroke-miterlimit: 4; fill: rgb(255,255,255); fill-rule: nonzero; opacity: 1;" vector-effect="non-scaling-stroke"  transform=" translate(-174.79, -71.89)" d="M 173.0646 72.1046 C 173.091 73.68610000000001 174.1012 74.337 175.2707 74.337 C 176.1081 74.337 176.613 74.191 177.0515 74.00500000000001 L 177.2512 74.84240000000001 C 176.8391 75.02840000000002 176.1345 75.24080000000001 175.11110000000002 75.24080000000001 C 173.13110000000003 75.24080000000001 171.94800000000004 73.93860000000001 171.94800000000004 71.99810000000001 C 171.94800000000004 70.05760000000001 173.09110000000004 68.5293 174.96510000000004 68.5293 C 177.06520000000003 68.5293 177.62330000000003 70.37650000000001 177.62330000000003 71.5596 C 177.62330000000003 71.7989 177.59640000000002 71.98490000000001 177.58330000000004 72.1045 L 173.06470000000004 72.1045 Z M 176.4933 71.2672 C 176.50650000000002 70.5231 176.1876 69.3663 174.8717 69.3663 C 173.6891 69.3663 173.1705 70.45609999999999 173.0778 71.2672 L 176.4933 71.2672 Z" stroke-linecap="round" />
</g>
		<g transform="matrix(1 0 0 1 89.28 32.94)" id="a"  >
<path style="stroke: none; stroke-width: 1; stroke-dasharray: none; stroke-linecap: butt; stroke-dashoffset: 0; stroke-linejoin: miter; stroke-miterlimit: 4; fill: rgb(255,255,255); fill-rule: nonzero; opacity: 1;" vector-effect="non-scaling-stroke"  transform=" translate(-180.72, -71.89)" d="M 178.9098 73.9118 C 179.25549999999998 74.1379 179.86679999999998 74.3771 180.4518 74.3771 C 181.30239999999998 74.3771 181.7008 73.95179999999999 181.7008 73.4201 C 181.7008 72.86200000000001 181.3688 72.55630000000001 180.505 72.23750000000001 C 179.34879999999998 71.82540000000002 178.8038 71.18720000000002 178.8038 70.4167 C 178.8038 69.3801 179.64069999999998 68.52950000000001 181.023 68.52950000000001 C 181.6744 68.52950000000001 182.2457 68.71550000000002 182.6045 68.92790000000001 L 182.312 69.77850000000001 C 182.05960000000002 69.61930000000001 181.59470000000002 69.4064 180.9966 69.4064 C 180.3052 69.4064 179.9199 69.8053 179.9199 70.2838 C 179.9199 70.815 180.3052 71.0543 181.14260000000002 71.3736 C 182.2588 71.7989 182.8306 72.357 182.8306 73.31349999999999 C 182.8306 74.4434 181.9532 75.24069999999999 180.4248 75.24069999999999 C 179.7207 75.24069999999999 179.0693 75.06779999999999 178.6177 74.80219999999998 L 178.90970000000002 73.91159999999998 Z" stroke-linecap="round" />
</g>
</g>
</g>
</svg>